<svg width="74" height="74" viewBox="0 0 74 74" fill="none" xmlns="http://www.w3.org/2000/svg">
<path d="M15.4167 21.5833H18.5C20.1355 21.5833 21.704 20.9336 22.8605 19.7771C24.017 18.6206 24.6667 17.0521 24.6667 15.4166C24.6667 14.5988 24.9915 13.8146 25.5698 13.2363C26.148 12.6581 26.9322 12.3333 27.75 12.3333H46.25C47.0677 12.3333 47.852 12.6581 48.4302 13.2363C49.0085 13.8146 49.3333 14.5988 49.3333 15.4166C49.3333 17.0521 49.983 18.6206 51.1395 19.7771C52.296 20.9336 53.8645 21.5833 55.5 21.5833H58.5833C60.2188 21.5833 61.7873 22.233 62.9438 23.3894C64.1003 24.5459 64.75 26.1144 64.75 27.7499V55.4999C64.75 57.1354 64.1003 58.7039 62.9438 59.8604C61.7873 61.0169 60.2188 61.6666 58.5833 61.6666H15.4167C13.7812 61.6666 12.2126 61.0169 11.0562 59.8604C9.8997 58.7039 9.25 57.1354 9.25 55.4999V27.7499C9.25 26.1144 9.8997 24.5459 11.0562 23.3894C12.2126 22.233 13.7812 21.5833 15.4167 21.5833" stroke="#A905B6" stroke-width="5" stroke-linecap="round" stroke-linejoin="round"/>
<path d="M37 49.3333C42.1086 49.3333 46.25 45.1919 46.25 40.0833C46.25 34.9746 42.1086 30.8333 37 30.8333C31.8914 30.8333 27.75 34.9746 27.75 40.0833C27.75 45.1919 31.8914 49.3333 37 49.3333Z" stroke="#A905B6" stroke-width="5" stroke-linecap="round" stroke-linejoin="round"/>
</svg>
