<svg width="19" height="19" viewBox="0 0 19 19" fill="none" xmlns="http://www.w3.org/2000/svg">
<path d="M9.5 11.875C10.8117 11.875 11.875 10.8117 11.875 9.5C11.875 8.18832 10.8117 7.125 9.5 7.125C8.18832 7.125 7.125 8.18832 7.125 9.5C7.125 10.8117 8.18832 11.875 9.5 11.875Z" stroke="#A905B6" stroke-width="1.5" stroke-linecap="round" stroke-linejoin="round"/>
<path d="M9.50008 15.8334C12.9979 15.8334 15.8334 12.9979 15.8334 9.50008C15.8334 6.00228 12.9979 3.16675 9.50008 3.16675C6.00228 3.16675 3.16675 6.00228 3.16675 9.50008C3.16675 12.9979 6.00228 15.8334 9.50008 15.8334Z" stroke="#A905B6" stroke-width="1.5" stroke-linecap="round" stroke-linejoin="round"/>
<path d="M9.5 1.58325V3.16659" stroke="#A905B6" stroke-width="1.5" stroke-linecap="round" stroke-linejoin="round"/>
<path d="M9.5 15.8333V17.4166" stroke="#A905B6" stroke-width="1.5" stroke-linecap="round" stroke-linejoin="round"/>
<path d="M15.8333 9.5H17.4166" stroke="#A905B6" stroke-width="1.5" stroke-linecap="round" stroke-linejoin="round"/>
<path d="M1.58325 9.5H3.16659" stroke="#A905B6" stroke-width="1.5" stroke-linecap="round" stroke-linejoin="round"/>
</svg>
